<svg version="1.1" id="Layer_1" xmlns="http://www.w3.org/2000/svg" xmlns:xlink="http://www.w3.org/1999/xlink" x="0px" y="0px"
	 width="100%" viewBox="0 0 821 486" enable-background="new 0 0 821 486" xml:space="preserve">
<path fill="#000000" opacity="1.000000" stroke="none" 
	d="
M556.000000,487.000000 
	C370.666687,487.000000 185.833405,487.000000 1.000074,487.000000 
	C1.000050,325.000061 1.000050,163.000122 1.000025,1.000140 
	C274.666565,1.000093 548.333130,1.000093 821.999756,1.000046 
	C821.999878,162.999863 821.999878,324.999725 821.999939,486.999786 
	C733.500000,487.000000 645.000000,487.000000 556.000000,487.000000 
M156.998611,282.012177 
	C156.998611,282.012177 156.923111,282.010132 156.936035,282.900665 
	C157.015411,284.286621 157.094772,285.672577 157.179260,287.147827 
	C161.823257,287.147827 165.929428,287.147827 170.960114,287.015656 
	C327.953674,287.015656 484.947266,287.015656 641.737488,287.015656 
	C642.109314,281.226074 642.434143,276.169647 642.965881,270.181519 
	C642.912842,248.088654 642.859802,225.995773 642.935791,203.049271 
	C642.466797,197.402222 641.997803,191.755173 641.531799,186.144089 
	C597.230042,186.144089 553.119202,186.144089 508.157990,185.992142 
	C506.435242,186.054581 504.712494,186.117020 502.335022,186.035217 
	C501.893524,186.084549 501.452057,186.133896 500.105469,186.016220 
	C496.733856,186.068848 493.362244,186.121460 489.115875,186.014206 
	C486.746704,186.057465 484.377533,186.100723 481.118011,185.984543 
	C478.409088,186.037689 475.700195,186.090836 472.064209,186.005188 
	C403.205414,186.001648 334.346619,185.996948 265.487823,186.002319 
	C263.995300,186.002426 262.502808,186.117981 260.092438,186.013657 
	C255.725311,186.059280 251.358185,186.104904 246.334534,186.011292 
	C245.892960,186.062363 245.451370,186.113434 244.129074,186.011856 
	C241.749100,186.068954 239.369125,186.126038 236.065384,186.022583 
	C209.787537,186.022583 183.509674,186.022583 156.962936,186.022583 
	C156.962936,188.944336 156.962936,191.415787 156.224442,194.312027 
	C156.201965,197.195786 156.179504,200.079544 156.008347,203.603867 
	C156.316620,204.089066 156.624878,204.574265 156.922012,204.974945 
	C156.922012,204.974945 156.842667,205.006119 156.983688,205.933212 
	C157.031555,214.218948 157.079422,222.504684 156.961655,231.272751 
	C156.975159,231.442200 156.988647,231.611664 156.235184,232.250488 
	C156.228592,247.868088 156.221985,263.485687 156.124374,279.763580 
	C156.414154,280.538239 156.703918,281.312897 156.998611,282.012177 
z"/>
<path fill="#FCFCFC" opacity="1.000000" stroke="none" 
	d="
M157.127289,230.790421 
	C157.079422,222.504684 157.031555,214.218948 157.262863,205.289032 
	C160.601028,208.415176 164.477493,209.777481 169.382065,209.697403 
	C182.694199,209.480057 196.022842,209.369232 209.326187,209.798065 
	C220.639069,210.162735 229.308426,219.845322 229.030945,230.866730 
	C228.741257,242.373169 220.242615,250.873688 208.728210,251.263855 
	C204.417145,251.409943 200.023270,251.273209 195.826080,252.086029 
	C190.271149,253.161804 187.265930,257.955353 187.778290,263.590881 
	C188.262222,268.913666 192.050644,272.459778 197.798676,272.730011 
	C201.620422,272.909668 205.456802,272.939026 209.282318,272.850067 
	C231.612350,272.330780 250.132004,252.957413 249.972443,230.627701 
	C249.888000,218.812744 244.905289,209.150467 237.772629,200.227264 
	C237.855103,200.144226 238.020966,199.979034 238.443420,199.982941 
	C243.425064,200.658096 245.267334,198.565704 245.028946,194.115540 
	C244.887360,191.472443 245.007385,188.815323 245.009796,186.164490 
	C245.451370,186.113434 245.892960,186.062363 246.666901,186.520905 
	C246.999283,189.894760 246.999283,192.758987 246.999283,195.623215 
	C247.517227,195.842682 248.035187,196.062149 248.553131,196.281631 
	C252.705521,192.914322 256.857910,189.547012 261.010284,186.179703 
	C262.502808,186.117981 263.995300,186.002426 265.487823,186.002319 
	C334.346619,185.996948 403.205414,186.001648 472.475403,186.401398 
	C472.067261,187.564926 471.253021,188.337738 470.427826,189.098633 
	C465.081635,194.028107 466.175995,200.722824 472.647034,204.064178 
	C459.542267,218.610214 465.310181,240.204834 484.162170,245.836166 
	C491.157501,247.925766 498.912537,247.713562 506.343536,248.037125 
	C514.234863,248.380692 522.152771,248.114334 529.993164,248.114334 
	C529.993164,251.868820 529.993164,254.883926 529.993164,258.289703 
	C528.395813,258.289703 526.925903,258.289703 525.455994,258.289734 
	C510.636719,258.290070 495.817383,258.271484 480.998230,258.313141 
	C479.013214,258.318726 476.967407,258.376404 475.055908,258.843933 
	C469.015930,260.321320 465.827820,265.135895 466.696289,271.120300 
	C467.429932,276.175690 471.492645,279.270416 477.505615,279.299896 
	C492.000549,279.371033 506.521240,279.949432 520.979065,279.245392 
	C527.562500,278.924835 534.297607,276.730011 540.482666,274.205963 
	C555.658936,268.012665 555.196228,240.594299 542.745056,233.235214 
	C535.815308,229.139511 528.695740,226.814163 520.702759,226.851837 
	C509.933868,226.902618 499.164551,226.864426 488.243134,226.864426 
	C488.243134,223.168808 488.243134,219.948593 488.243134,216.563370 
	C493.399384,216.563370 498.228363,216.565445 503.057373,216.562958 
	C515.220093,216.556702 527.383362,216.613007 539.545288,216.514374 
	C545.893127,216.462891 550.236450,213.355301 551.284485,208.478149 
	C552.880127,201.052780 548.440491,195.592484 540.307495,195.503159 
	C524.528198,195.329834 508.746307,195.396820 493.090973,195.029907 
	C495.814484,191.858124 498.412506,189.020676 501.010559,186.183228 
	C501.452057,186.133896 501.893524,186.084549 502.724457,186.424988 
	C505.294403,188.486832 507.443024,189.878693 509.008392,186.144089 
	C553.119202,186.144089 597.230042,186.144089 641.531799,186.144089 
	C641.997803,191.755173 642.466797,197.402222 642.710083,203.451614 
	C642.484375,203.853958 642.160645,203.892365 642.084656,203.544189 
	C639.064392,196.901978 635.053284,194.495804 629.612000,195.759552 
	C624.059570,197.049118 621.184814,201.028366 621.141296,207.625610 
	C621.099854,213.907776 621.132385,220.190414 621.132385,226.715179 
	C606.794434,226.715179 592.932739,226.715179 578.704590,226.715179 
	C578.704590,223.103485 578.708679,219.797653 578.703430,216.491806 
	C578.698120,213.160233 578.834961,209.819809 578.640686,206.498978 
	C578.259460,199.980087 573.857727,195.511414 568.024902,195.483215 
	C562.070129,195.454437 557.168640,200.241333 557.127991,206.764648 
	C556.999390,227.420395 557.014465,248.077805 557.128540,268.733704 
	C557.154724,273.474396 559.714478,277.138916 564.123535,278.740326 
	C568.504272,280.331421 573.072510,279.490265 575.864563,275.635498 
	C577.571472,273.278870 578.382812,269.890533 578.575317,266.899811 
	C578.975464,260.684509 578.696228,254.425507 578.696228,248.254440 
	C593.256348,248.254440 607.003662,248.254440 621.135010,248.254440 
	C621.135010,255.015411 621.072937,261.480804 621.152954,267.944458 
	C621.228699,274.068268 624.633057,278.420227 629.720276,279.136963 
	C635.941040,280.013428 639.975708,277.435730 642.371033,271.186066 
	C642.503906,271.232697 642.758911,271.113251 642.758911,271.113251 
	C642.434143,276.169647 642.109314,281.226074 641.737488,287.015656 
	C484.947266,287.015656 327.953674,287.015656 170.475525,286.775208 
	C169.985291,286.329895 169.979645,286.125061 170.239487,285.709106 
	C174.754349,283.141022 176.273651,279.446930 176.188980,274.709351 
	C176.034576,266.071136 176.048126,257.428589 176.096024,248.788406 
	C176.136978,241.402832 179.672791,237.782883 187.114441,237.672058 
	C192.759048,237.587967 198.408783,237.922119 204.055771,237.905869 
	C210.903366,237.886154 215.211502,233.881516 215.152206,227.807617 
	C215.094788,221.927567 211.068314,218.302734 204.198868,218.211761 
	C196.389771,218.108337 188.549637,218.605072 180.774872,218.076965 
	C170.017151,217.346268 162.120239,221.174316 157.127289,230.790421 
M439.308777,273.926147 
	C452.172333,266.174713 459.745667,254.888229 460.575439,239.861877 
	C461.207794,228.410095 460.880463,216.895706 460.707306,205.413300 
	C460.626709,200.067734 456.414581,196.008957 451.246094,195.539856 
	C445.858612,195.050888 441.099823,198.526245 439.963043,203.997528 
	C439.526794,206.097122 439.409241,208.288925 439.377838,210.442093 
	C439.244324,219.594437 439.549225,228.768356 439.021545,237.895523 
	C438.480408,247.254913 430.832764,256.215118 422.802856,257.959442 
	C414.004761,259.870636 404.515625,255.561188 400.372894,246.840103 
	C398.441132,242.773376 397.483429,237.967224 397.238403,233.433838 
	C396.735748,224.135605 397.206421,214.788773 396.893402,205.474808 
	C396.706818,199.922180 392.186279,195.780075 386.910187,195.512787 
	C381.800812,195.253937 376.180603,199.035233 376.082367,203.880173 
	C375.809479,217.341721 374.520050,231.063019 376.545837,244.233551 
	C381.021515,273.331543 412.657074,288.042511 439.308777,273.926147 
M313.841949,238.839417 
	C314.867706,241.277863 316.641052,243.675308 316.777496,246.162567 
	C317.169312,253.304001 316.865173,260.481934 316.897705,267.645233 
	C316.930573,274.888275 320.679565,279.121155 327.073059,279.247345 
	C333.762146,279.379395 337.978516,275.098846 338.057953,267.901428 
	C338.138855,260.570892 337.816010,253.224472 338.218750,245.915237 
	C338.355438,243.434402 339.585602,240.485489 341.306366,238.710541 
	C349.305420,230.459717 357.723450,222.617249 365.848175,214.485367 
	C371.106720,209.222153 371.338623,203.138336 366.787994,198.576141 
	C362.450226,194.227325 356.391510,194.297363 351.349670,199.503540 
	C343.710602,207.391663 336.479767,215.675156 329.075470,223.790695 
	C328.033447,223.780975 326.991394,223.771240 325.949371,223.761520 
	C318.411530,215.532578 311.076630,207.104294 303.261597,199.147583 
	C298.383942,194.181488 291.963409,194.422516 287.737122,198.874252 
	C283.389313,203.454041 283.679657,208.847427 288.844696,214.055893 
	C296.933899,222.213135 305.157257,230.237305 313.841949,238.839417 
M277.015442,200.957108 
	C273.035553,195.999695 269.023865,194.497177 264.065063,196.106781 
	C259.029541,197.741257 256.755280,201.275421 256.735291,207.711884 
	C256.674286,227.359970 256.676361,247.008301 256.591919,266.656281 
	C256.557068,274.759613 260.343323,279.339996 267.273926,279.322052 
	C274.496185,279.303345 278.360352,275.012817 278.361542,267.006958 
	C278.364380,247.515854 278.397308,228.024628 278.326141,208.533783 
	C278.317780,206.250259 277.733002,203.968857 277.015442,200.957108 
z"/>
<path fill="#EF5F2A" opacity="1.000000" stroke="none" 
	d="
M237.690155,200.310318 
	C244.905289,209.150467 249.888000,218.812744 249.972443,230.627701 
	C250.132004,252.957413 231.612350,272.330780 209.282318,272.850067 
	C205.456802,272.939026 201.620422,272.909668 197.798676,272.730011 
	C192.050644,272.459778 188.262222,268.913666 187.778290,263.590881 
	C187.265930,257.955353 190.271149,253.161804 195.826080,252.086029 
	C200.023270,251.273209 204.417145,251.409943 208.728210,251.263855 
	C220.242615,250.873688 228.741257,242.373169 229.030945,230.866730 
	C229.308426,219.845322 220.639069,210.162735 209.326187,209.798065 
	C196.022842,209.369232 182.694199,209.480057 169.382065,209.697403 
	C164.477493,209.777481 160.601028,208.415176 157.192352,204.825500 
	C156.842667,205.006119 156.922012,204.974945 157.224365,204.779419 
	C157.070160,204.043716 156.613586,203.503510 156.157043,202.963303 
	C156.179504,200.079544 156.201965,197.195786 156.918213,194.014801 
	C160.296127,189.868896 163.912140,188.279114 168.661758,188.353516 
	C180.098587,188.532761 191.551270,188.705704 202.977325,188.304855 
	C216.204361,187.840851 227.815033,191.401993 237.690155,200.310318 
z"/>
<path fill="#373737" opacity="1.000000" stroke="none" 
	d="
M157.044464,231.031586 
	C162.120239,221.174316 170.017151,217.346268 180.774872,218.076965 
	C188.549637,218.605072 196.389771,218.108337 204.198868,218.211761 
	C211.068314,218.302734 215.094788,221.927567 215.152206,227.807617 
	C215.211502,233.881516 210.903366,237.886154 204.055771,237.905869 
	C198.408783,237.922119 192.759048,237.587967 187.114441,237.672058 
	C179.672791,237.782883 176.136978,241.402832 176.096024,248.788406 
	C176.048126,257.428589 176.034576,266.071136 176.188980,274.709351 
	C176.273651,279.446930 174.754349,283.141022 169.807617,285.698364 
	C164.103333,287.562866 160.659729,284.327362 156.923111,282.010132 
	C156.923111,282.010132 156.998611,282.012177 157.089783,281.687012 
	C157.047440,280.626068 156.913940,279.890289 156.865250,278.683044 
	C156.967422,262.734772 156.984787,247.257935 157.002151,231.781113 
	C156.988647,231.611664 156.975159,231.442200 157.044464,231.031586 
z"/>
<path fill="#FCFCFC" opacity="1.000000" stroke="none" 
	d="
M237.772629,200.227264 
	C227.815033,191.401993 216.204361,187.840851 202.977325,188.304855 
	C191.551270,188.705704 180.098587,188.532761 168.661758,188.353516 
	C163.912140,188.279114 160.296127,189.868896 157.287476,193.802414 
	C156.962936,191.415787 156.962936,188.944336 156.962936,186.022583 
	C183.509674,186.022583 209.787537,186.022583 236.528198,186.542847 
	C237.334335,191.368423 237.677643,195.673721 238.020966,199.979034 
	C238.020966,199.979034 237.855103,200.144226 237.772629,200.227264 
z"/>
<path fill="#F0F0F0" opacity="1.000000" stroke="none" 
	d="
M472.829712,203.779526 
	C466.175995,200.722824 465.081635,194.028107 470.427826,189.098633 
	C471.253021,188.337738 472.067261,187.564926 472.938934,186.470795 
	C475.700195,186.090836 478.409088,186.037689 481.619904,186.401474 
	C483.793091,190.056168 485.464355,193.293930 486.872131,196.705322 
	C485.783783,197.039917 484.958923,197.200912 484.098419,196.952530 
	C484.438721,191.913712 480.631561,190.521423 477.587189,189.638840 
	C475.871216,189.141357 473.286072,191.116867 471.272491,192.287888 
	C467.822052,194.294525 470.036011,196.820999 470.933685,199.151276 
	C471.524689,200.685455 472.230743,202.175308 472.873016,203.709610 
	C472.860779,203.734207 472.829712,203.779526 472.829712,203.779526 
z"/>
<path fill="#F0F0F0" opacity="1.000000" stroke="none" 
	d="
M238.443420,199.982941 
	C237.677643,195.673721 237.334335,191.368423 236.990082,186.623108 
	C239.369125,186.126038 241.749100,186.068954 244.569427,186.088181 
	C245.007385,188.815323 244.887360,191.472443 245.028946,194.115540 
	C245.267334,198.565704 243.425064,200.658096 238.443420,199.982941 
z"/>
<path fill="#F0F0F0" opacity="1.000000" stroke="none" 
	d="
M260.551361,186.096680 
	C256.857910,189.547012 252.705521,192.914322 248.553131,196.281631 
	C248.035187,196.062149 247.517227,195.842682 246.999283,195.623215 
	C246.999283,192.758987 246.999283,189.894760 246.995178,186.590530 
	C251.358185,186.104904 255.725311,186.059280 260.551361,186.096680 
z"/>
<path fill="#A1A1A1" opacity="1.000000" stroke="none" 
	d="
M642.862427,270.647400 
	C642.758911,271.113251 642.503906,271.232697 642.261292,270.719086 
	C642.065979,248.101105 642.113342,225.996735 642.160645,203.892365 
	C642.160645,203.892365 642.484375,203.853958 642.645508,203.878433 
	C642.859802,225.995773 642.912842,248.088654 642.862427,270.647400 
z"/>
<path fill="#F0F0F0" opacity="1.000000" stroke="none" 
	d="
M500.558014,186.099731 
	C498.412506,189.020676 495.814484,191.858124 492.856689,195.205673 
	C492.111572,195.735458 491.726227,195.755142 491.259308,195.314072 
	C490.782043,191.960251 490.386322,189.067169 489.990631,186.174088 
	C493.362244,186.121460 496.733856,186.068848 500.558014,186.099731 
z"/>
<path fill="#FCFCFC" opacity="1.000000" stroke="none" 
	d="
M489.553253,186.094147 
	C490.386322,189.067169 490.782043,191.960251 490.924957,195.440613 
	C489.493347,196.195831 488.314484,196.363770 487.135620,196.531708 
	C485.464355,193.293930 483.793091,190.056168 482.065063,186.481201 
	C484.377533,186.100723 486.746704,186.057465 489.553253,186.094147 
z"/>
<path fill="#898989" opacity="1.000000" stroke="none" 
	d="
M156.618668,232.015808 
	C156.984787,247.257935 156.967422,262.734772 156.722473,278.687256 
	C156.494904,279.162903 156.215393,279.103302 156.215393,279.103302 
	C156.221985,263.485687 156.228592,247.868088 156.618668,232.015808 
z"/>
<path fill="#D9D9D9" opacity="1.000000" stroke="none" 
	d="
M156.929565,282.455383 
	C160.659729,284.327362 164.103333,287.562866 169.542145,285.909485 
	C169.979645,286.125061 169.985291,286.329895 170.013275,286.841278 
	C165.929428,287.147827 161.823257,287.147827 157.179260,287.147827 
	C157.094772,285.672577 157.015411,284.286621 156.929565,282.455383 
z"/>
<path fill="#F0F0F0" opacity="1.000000" stroke="none" 
	d="
M508.583191,186.068115 
	C507.443024,189.878693 505.294403,188.486832 503.051819,186.497101 
	C504.712494,186.117020 506.435242,186.054581 508.583191,186.068115 
z"/>
<path fill="#D9D9D9" opacity="1.000000" stroke="none" 
	d="
M156.169891,279.433441 
	C156.215393,279.103302 156.494904,279.162903 156.637665,279.158722 
	C156.913940,279.890289 157.047440,280.626068 157.087311,281.724670 
	C156.703918,281.312897 156.414154,280.538239 156.169891,279.433441 
z"/>
<path fill="#FCFCFC" opacity="1.000000" stroke="none" 
	d="
M156.082687,203.283585 
	C156.613586,203.503510 157.070160,204.043716 157.229950,204.821686 
	C156.624878,204.574265 156.316620,204.089066 156.082687,203.283585 
z"/>
<path fill="#383838" opacity="1.000000" stroke="none" 
	d="
M486.872131,196.705322 
	C488.314484,196.363770 489.493347,196.195831 491.006531,195.901367 
	C491.726227,195.755142 492.111572,195.735458 492.731201,195.540009 
	C508.746307,195.396820 524.528198,195.329834 540.307495,195.503159 
	C548.440491,195.592484 552.880127,201.052780 551.284485,208.478149 
	C550.236450,213.355301 545.893127,216.462891 539.545288,216.514374 
	C527.383362,216.613007 515.220093,216.556702 503.057373,216.562958 
	C498.228363,216.565445 493.399384,216.563370 488.243134,216.563370 
	C488.243134,219.948593 488.243134,223.168808 488.243134,226.864426 
	C499.164551,226.864426 509.933868,226.902618 520.702759,226.851837 
	C528.695740,226.814163 535.815308,229.139511 542.745056,233.235214 
	C555.196228,240.594299 555.658936,268.012665 540.482666,274.205963 
	C534.297607,276.730011 527.562500,278.924835 520.979065,279.245392 
	C506.521240,279.949432 492.000549,279.371033 477.505615,279.299896 
	C471.492645,279.270416 467.429932,276.175690 466.696289,271.120300 
	C465.827820,265.135895 469.015930,260.321320 475.055908,258.843933 
	C476.967407,258.376404 479.013214,258.318726 480.998230,258.313141 
	C495.817383,258.271484 510.636719,258.290070 525.455994,258.289734 
	C526.925903,258.289703 528.395813,258.289703 529.993164,258.289703 
	C529.993164,254.883926 529.993164,251.868820 529.993164,248.114334 
	C522.152771,248.114334 514.234863,248.380692 506.343536,248.037125 
	C498.912537,247.713562 491.157501,247.925766 484.162170,245.836166 
	C465.310181,240.204834 459.542267,218.610214 472.647034,204.064178 
	C472.829712,203.779526 472.860779,203.734207 473.177582,203.635559 
	C477.040955,201.478577 480.587494,199.420227 484.134064,197.361893 
	C484.958923,197.200912 485.783783,197.039917 486.872131,196.705322 
z"/>
<path fill="#363636" opacity="1.000000" stroke="none" 
	d="
M642.084717,203.544189 
	C642.113342,225.996735 642.065979,248.101105 642.128418,270.672455 
	C639.975708,277.435730 635.941040,280.013428 629.720276,279.136963 
	C624.633057,278.420227 621.228699,274.068268 621.152954,267.944458 
	C621.072937,261.480804 621.135010,255.015411 621.135010,248.254440 
	C607.003662,248.254440 593.256348,248.254440 578.696228,248.254440 
	C578.696228,254.425507 578.975464,260.684509 578.575317,266.899811 
	C578.382812,269.890533 577.571472,273.278870 575.864563,275.635498 
	C573.072510,279.490265 568.504272,280.331421 564.123535,278.740326 
	C559.714478,277.138916 557.154724,273.474396 557.128540,268.733704 
	C557.014465,248.077805 556.999390,227.420395 557.127991,206.764648 
	C557.168640,200.241333 562.070129,195.454437 568.024902,195.483215 
	C573.857727,195.511414 578.259460,199.980087 578.640686,206.498978 
	C578.834961,209.819809 578.698120,213.160233 578.703430,216.491806 
	C578.708679,219.797653 578.704590,223.103485 578.704590,226.715179 
	C592.932739,226.715179 606.794434,226.715179 621.132385,226.715179 
	C621.132385,220.190414 621.099854,213.907776 621.141296,207.625610 
	C621.184814,201.028366 624.059570,197.049118 629.612000,195.759552 
	C635.053284,194.495804 639.064392,196.901978 642.084717,203.544189 
z"/>
<path fill="#373737" opacity="1.000000" stroke="none" 
	d="
M438.966797,274.070831 
	C412.657074,288.042511 381.021515,273.331543 376.545837,244.233551 
	C374.520050,231.063019 375.809479,217.341721 376.082367,203.880173 
	C376.180603,199.035233 381.800812,195.253937 386.910187,195.512787 
	C392.186279,195.780075 396.706818,199.922180 396.893402,205.474808 
	C397.206421,214.788773 396.735748,224.135605 397.238403,233.433838 
	C397.483429,237.967224 398.441132,242.773376 400.372894,246.840103 
	C404.515625,255.561188 414.004761,259.870636 422.802856,257.959442 
	C430.832764,256.215118 438.480408,247.254913 439.021545,237.895523 
	C439.549225,228.768356 439.244324,219.594437 439.377838,210.442093 
	C439.409241,208.288925 439.526794,206.097122 439.963043,203.997528 
	C441.099823,198.526245 445.858612,195.050888 451.246094,195.539856 
	C456.414581,196.008957 460.626709,200.067734 460.707306,205.413300 
	C460.880463,216.895706 461.207794,228.410095 460.575439,239.861877 
	C459.745667,254.888229 452.172333,266.174713 438.966797,274.070831 
z"/>
<path fill="#363636" opacity="1.000000" stroke="none" 
	d="
M313.582886,238.578629 
	C305.157257,230.237305 296.933899,222.213135 288.844696,214.055893 
	C283.679657,208.847427 283.389313,203.454041 287.737122,198.874252 
	C291.963409,194.422516 298.383942,194.181488 303.261597,199.147583 
	C311.076630,207.104294 318.411530,215.532578 325.949371,223.761520 
	C326.991394,223.771240 328.033447,223.780975 329.075470,223.790695 
	C336.479767,215.675156 343.710602,207.391663 351.349670,199.503540 
	C356.391510,194.297363 362.450226,194.227325 366.787994,198.576141 
	C371.338623,203.138336 371.106720,209.222153 365.848175,214.485367 
	C357.723450,222.617249 349.305420,230.459717 341.306366,238.710541 
	C339.585602,240.485489 338.355438,243.434402 338.218750,245.915237 
	C337.816010,253.224472 338.138855,260.570892 338.057953,267.901428 
	C337.978516,275.098846 333.762146,279.379395 327.073059,279.247345 
	C320.679565,279.121155 316.930573,274.888275 316.897705,267.645233 
	C316.865173,260.481934 317.169312,253.304001 316.777496,246.162567 
	C316.641052,243.675308 314.867706,241.277863 313.582886,238.578629 
z"/>
<path fill="#343434" opacity="1.000000" stroke="none" 
	d="
M277.215454,201.321777 
	C277.733002,203.968857 278.317780,206.250259 278.326141,208.533783 
	C278.397308,228.024628 278.364380,247.515854 278.361542,267.006958 
	C278.360352,275.012817 274.496185,279.303345 267.273926,279.322052 
	C260.343323,279.339996 256.557068,274.759613 256.591919,266.656281 
	C256.676361,247.008301 256.674286,227.359970 256.735291,207.711884 
	C256.755280,201.275421 259.029541,197.741257 264.065063,196.106781 
	C269.023865,194.497177 273.035553,195.999695 277.215454,201.321777 
z"/>
<path fill="#FCFCFC" opacity="1.000000" stroke="none" 
	d="
M484.098419,196.952515 
	C480.587494,199.420227 477.040955,201.478577 473.189819,203.610962 
	C472.230743,202.175308 471.524689,200.685455 470.933685,199.151276 
	C470.036011,196.820999 467.822052,194.294525 471.272491,192.287888 
	C473.286072,191.116867 475.871216,189.141357 477.587189,189.638840 
	C480.631561,190.521423 484.438721,191.913712 484.098419,196.952515 
z"/>
</svg>